<svg xmlns="http://www.w3.org/2000/svg" xmlns:xlink="http://www.w3.org/1999/xlink" viewBox="0 0 760 760" width="760" height="760" preserveAspectRatio="xMidYMid meet" style="width: 100%; height: 100%; transform: translate3d(0px, 0px, 0px); content-visibility: visible;">
    <defs>
      <clipPath id="__lottie_element_3">
        <rect width="760" height="760" x="0" y="0"></rect>
      </clipPath>
    </defs>
    <g clip-path="url(#__lottie_element_3)">
      <g transform="matrix(-0.33815014362335205,-0.9410921931266785,0.9410921931266785,-0.33815014362335205,380,380)" opacity="1" style="display: block;">
        <g opacity="1" transform="matrix(1,0,0,1,0,0)">
          <path stroke-linecap="butt" stroke-linejoin="miter" fill-opacity="0" stroke-miterlimit="4" stroke="#000000" stroke-opacity="1" stroke-width="1" d=" M0,-340 C187.64599609375,-340 340,-187.64599609375 340,0 C340,187.64599609375 187.64599609375,340 0,340 C-187.64599609375,340 -340,187.64599609375 -340,0 C-340,-187.64599609375 -187.64599609375,-340 0,-340z">
          </path>
        </g>
      </g>
      <g transform="matrix(-0.33814918994903564,-0.9410895705223083,0.9410895705223083,-0.33814918994903564,428.01751708984375,513.6356201171875)" opacity="1" style="display: block;">
        <g opacity="1" transform="matrix(1,0,0,1,0,0)">
          <path stroke-linecap="butt" stroke-linejoin="miter" fill-opacity="0" stroke-miterlimit="4" stroke="#000000" stroke-opacity="1" stroke-width="1" d=" M0,-198 C109.27619934082031,-198 198,-109.27619934082031 198,0 C198,109.27619934082031 109.27619934082031,198 0,198 C-109.27619934082031,198 -198,109.27619934082031 -198,0 C-198,-109.27619934082031 -109.27619934082031,-198 0,-198z">
          </path>
        </g>
      </g>
      <g transform="matrix(-0.33814918994903564,-0.9410895705223083,0.9410895705223083,-0.33814918994903564,240.23646545410156,354.7748107910156)" opacity="1" style="display: block;">
        <g opacity="1" transform="matrix(1,0,0,1,0,0)">
          <path stroke-linecap="butt" stroke-linejoin="miter" fill-opacity="0" stroke-miterlimit="4" stroke="#000000" stroke-opacity="1" stroke-width="1" d=" M0,-198 C109.27619934082031,-198 198,-109.27619934082031 198,0 C198,109.27619934082031 109.27619934082031,198 0,198 C-109.27619934082031,198 -198,109.27619934082031 -198,0 C-198,-109.27619934082031 -109.27619934082031,-198 0,-198z">
          </path>
        </g>
      </g>
      <g transform="matrix(-0.33814918994903564,-0.9410895705223083,0.9410895705223083,-0.33814918994903564,471.74603271484375,271.58953857421875)" opacity="1" style="display: block;">
        <g opacity="1" transform="matrix(1,0,0,1,0,0)">
          <path stroke-linecap="butt" stroke-linejoin="miter" fill-opacity="0" stroke-miterlimit="4" stroke="#000000" stroke-opacity="1" stroke-width="1" d=" M0,-198 C109.27619934082031,-198 198,-109.27619934082031 198,0 C198,109.27619934082031 109.27619934082031,198 0,198 C-109.27619934082031,198 -198,109.27619934082031 -198,0 C-198,-109.27619934082031 -109.27619934082031,-198 0,-198z">
          </path>
        </g>
      </g>
      <g transform="matrix(-0.33815014362335205,-0.9410921931266785,0.9410921931266785,-0.33815014362335205,384.7341003417969,393.17529296875)" opacity="1" style="display: block;">
        <g opacity="1" transform="matrix(1,0,0,1,0,0)">
          <path fill="#0E1214" fill-opacity="1" d=" M56.22600173950195,-72.91400146484375 C65.16600036621094,-50.34400177001953 70.08599853515625,-25.743999481201172 70.08599853515625,-0.004000000189989805 C70.08599853515625,25.746000289916992 65.16600036621094,50.34600067138672 56.22600173950195,72.91600036621094 C5.216000080108643,65.46600341796875 -39.4739990234375,38.57600021362305 -70.08399963378906,0.006000000052154064 C-39.79399871826172,-38.15399932861328 4.265999794006348,-64.88400268554688 54.58599853515625,-72.66400146484375 C54.58599853515625,-72.66400146484375 56.22600173950195,-72.91400146484375 56.22600173950195,-72.91400146484375z">
          </path>
          <path stroke-linecap="butt" stroke-linejoin="miter" fill-opacity="0" stroke-miterlimit="4" stroke="#000000" stroke-opacity="1" stroke-width="1" d=" M56.22600173950195,-72.91400146484375 C65.16600036621094,-50.34400177001953 70.08599853515625,-25.743999481201172 70.08599853515625,-0.004000000189989805 C70.08599853515625,25.746000289916992 65.16600036621094,50.34600067138672 56.22600173950195,72.91600036621094 C5.216000080108643,65.46600341796875 -39.4739990234375,38.57600021362305 -70.08399963378906,0.006000000052154064 C-39.79399871826172,-38.15399932861328 4.265999794006348,-64.88400268554688 54.58599853515625,-72.66400146484375 C54.58599853515625,-72.66400146484375 56.22600173950195,-72.91400146484375 56.22600173950195,-72.91400146484375z">
          </path>
        </g>
      </g>
      
      <!-- Replace MOBIA with ZenithEclipse -->
      <g transform="matrix(1,0,0,1,161.1485595703125,347.6263122558594)" opacity="1" fill="#0E1214" font-size="24" font-family="Inter" font-style="normal" font-weight="400" aria-label="ZenithEclipse" style="display: block;">
        <text x="-40" y="0" font-family="Inter" font-size="24" fill="#0E1214">Zenith Eclipse</text>
      </g>

      <!-- Partners Text -->
      <g transform="matrix(1,0,0,1,523.2450561523438,217.5189971923828)" opacity="1" fill="#0E1214" font-size="24" font-family="Inter" font-style="normal" font-weight="400" aria-label="Partners" style="display: block;">
        <text x="-10" y="0" font-family="Inter" font-size="24" fill="#0E1214">Partners</text>
      </g>

      <!-- Customers Text -->
      <g transform="matrix(1,0,0,1,455.7215270996094,596.6881713867188)" opacity="1" fill="#0E1214" font-size="24" font-family="Inter" font-style="normal" font-weight="400" aria-label="Customers" style="display: block;">
        <text x="-50" y="0" font-family="Inter" font-size="24" fill="#0E1214">Customers</text>
      </g>
    </g>
  </svg>